<?xml version="1.0" encoding="utf-8"?>
<!-- Generator: Adobe Illustrator 27.0.0, SVG Export Plug-In . SVG Version: 6.00 Build 0)  -->
<svg version="1.1" id="Layer_1" xmlns="http://www.w3.org/2000/svg" xmlns:xlink="http://www.w3.org/1999/xlink" x="0px" y="0px"
	 viewBox="0 0 65 60" style="enable-background:new 0 0 65 60;" xml:space="preserve">
<path d="M8.1,20.1H1.7l2.2-8.3h4.2V0l9.6,0.1v11.8h6.4L22,20.1h-4.3v10.2c0,2.7,1.7,4.1,5.1,4.1c1.1,0,2-0.1,2.5-0.4l-2.8,9.6
	c-0.5,0.1-1,0.1-1.5,0.1c-2.9,0-5.3-0.5-7.2-1.4c-1.9-0.9-3.4-2.3-4.4-4.2c-1-1.9-1.5-4.2-1.5-7.1V20.1z"/>
<path d="M51.7,42.2c-1.8,0.7-3.5,1.2-5.1,1.3c-9.5,1-14.3-3.5-14.3-13.6v-18H42v17.3c0,1.8,0.4,3.2,1.3,4.2c0.8,0.9,2,1.4,3.6,1.4
	c1.5,0,2.6-0.5,3.5-1.4c0.8-0.9,1.3-2.3,1.3-4.1V12l9.7,0v34.5c0,3.7-1.3,6.9-4,9.6c-1.2,1.2-2.9,2.2-5,3c-1.9,0.7-3.8,1-5.8,1H45
	c-4.3-0.1-7.8-1.4-10.4-4c-1.7-1.7-2.7-3.3-3.1-4.6l8.7-5.1c0.1,1.5,0.7,2.8,1.8,3.9c1.1,1,2.4,1.6,4,1.6c1.2,0,2.3-0.3,3.3-1
	c0.9-0.6,1.6-1.5,2.1-2.6l0-0.1l0.1-0.1l0.1-0.2l0.1-0.2c0.1-0.2,0.1-0.4,0.1-0.7c0,0,0-0.1,0-0.1v-0.3h0L51.7,42.2L51.7,42.2z"/>
</svg>
