<svg width="36" height="36" viewBox="0 0 36 36" fill="none" xmlns="http://www.w3.org/2000/svg">
<path d="M24.4286 18.3767L18.3767 24.4286H14.3781L24.4286 14.3781V18.3767ZM24.4286 20.1947V20.5714C24.4275 21.5941 24.0208 22.5746 23.2977 23.2977C22.5746 24.0208 21.5941 24.4275 20.5714 24.4286H20.1947L24.4286 20.1947ZM24.4286 12.5601L12.5601 24.4286H11.5714V20.5014L20.5014 11.5714H24.4286V12.5601ZM15.4286 11.5714H18.6827L11.5714 18.6827V15.4286C11.5724 14.4059 11.9792 13.4254 12.7023 12.7023C13.4254 11.9792 14.4059 11.5724 15.4286 11.5714ZM21.7871 10.2857L24.4286 7.64421V10.2857H21.7871ZM24.4286 5.82557L19.9684 10.2857H15.4286C15.2949 10.2857 15.1631 10.296 15.0319 10.3056L23.7105 1.62707C24.1768 2.27724 24.4279 3.05705 24.4286 3.85714V5.82557ZM0 6.05186L6.05186 0H10.0504L0 10.0504V6.05186ZM0 11.8684L11.8684 0H16.7844L0 16.7844V11.8684ZM3.85714 0H4.23386L0 4.23386V3.85714C0.00102113 2.83448 0.407725 1.85399 1.13086 1.13086C1.85399 0.407725 2.83448 0.00102113 3.85714 0ZM0 18.603L18.6024 0H20.5714C21.3718 3.79871e-05 22.1521 0.250693 22.8028 0.716786L0.716786 22.8028C0.250693 22.1521 3.79871e-05 21.3718 0 20.5714V18.603ZM1.62579 23.7118L10.3044 15.0332C10.2947 15.1618 10.2844 15.2961 10.2844 15.4299V19.9697L5.82557 24.4286H3.85714C3.05675 24.4285 2.27646 24.1779 1.62579 23.7118ZM7.64421 24.4286L10.2857 21.7871V24.4286H7.64421Z" fill="black"/>
<path d="M36 32.1428C35.999 33.1655 35.5923 34.146 34.8691 34.8691C34.146 35.5923 33.1655 35.999 32.1429 36H15.4286C14.4059 35.999 13.4254 35.5923 12.7023 34.8691C11.9791 34.146 11.5724 33.1655 11.5714 32.1428V25.7143H20.5714C21.9349 25.7127 23.2421 25.1704 24.2063 24.2063C25.1704 23.2421 25.7127 21.9349 25.7143 20.5714V11.5714H32.1429C33.1655 11.5724 34.146 11.9791 34.8691 12.7023C35.5923 13.4254 35.999 14.4059 36 15.4286V32.1428Z" fill="black"/>
</svg>
