<?xml version="1.0" encoding="utf-8"?>
<!-- Generator: Adobe Illustrator 27.0.0, SVG Export Plug-In . SVG Version: 6.00 Build 0)  -->
<svg version="1.1" id="Layer_1" xmlns:svgjs="http://svgjs.com/svgjs"
	 xmlns="http://www.w3.org/2000/svg" xmlns:xlink="http://www.w3.org/1999/xlink" x="0px" y="0px" viewBox="0 0 51.1 61.5"
	 style="enable-background:new 0 0 51.1 61.5;" xml:space="preserve">
<g>
	<path d="M48.2,35.2l-1.8-1.9c-0.5-0.5-0.9-1.3-0.9-2.2V6.4c0-3.6-2.8-6.4-6.4-6.4H9.3c0,0,0,0-0.1,0C7.9,0,6.6,0.5,5.5,1.3
		c-1.6,1.1-2.6,3-2.6,5.1v43.5c0,3,1.9,5.4,4.8,6.2l18.9,5.1c2.3,0.6,4.8,0.1,6.7-1.3c1.2-0.9,1.9-1.9,2.4-3.2h8.2
		c3.6,0,6.4-2.8,6.4-6.4V41C50.6,38.8,49.7,36.7,48.2,35.2L48.2,35.2z M45.5,50.2c0,0.8-0.5,1.3-1.3,1.3h-7.5l-0.2-0.6v-38
		c0-3.5-2.3-6.6-5.7-7.5L29.3,5h9.9c0.8,0,1.3,0.5,1.3,1.3v24.8c0,2.2,0.9,4.2,2.4,5.8l1.8,1.8c0.5,0.5,0.9,1.3,0.9,2.2L45.5,50.2
		L45.5,50.2z"/>
</g>
</svg>
