<?xml version="1.0" encoding="utf-8"?>
<!-- Generator: Adobe Illustrator 27.0.0, SVG Export Plug-In . SVG Version: 6.00 Build 0)  -->
<svg version="1.1" id="Layer_1" xmlns="http://www.w3.org/2000/svg" xmlns:xlink="http://www.w3.org/1999/xlink" x="0px" y="0px"
	 viewBox="0 0 20.7 26.9" style="enable-background:new 0 0 20.7 26.9;" xml:space="preserve">
<style type="text/css">
	.st0{fill:#FF0000;}
</style>
<path class="st0" d="M15,7.9c-0.1-1-0.5-1.8-1.3-2.4s-1.8-0.9-3.2-0.9C9.7,4.6,8.9,4.8,8.3,5C7.7,5.3,7.2,5.6,6.9,6
	C6.5,6.5,6.4,7,6.4,7.6c0,0.5,0.1,0.9,0.3,1.2c0.2,0.3,0.5,0.7,0.9,0.9c0.4,0.2,0.8,0.5,1.3,0.7s1,0.3,1.6,0.5l2.4,0.6
	c1.1,0.3,2.2,0.6,3.1,1c1,0.4,1.8,1,2.5,1.6s1.2,1.4,1.6,2.2c0.4,0.8,0.6,1.8,0.6,2.9c0,1.6-0.4,3-1.2,4.2c-0.8,1.2-2,2.1-3.5,2.7
	s-3.3,1-5.5,1c-2.1,0-4-0.3-5.5-1c-1.6-0.6-2.8-1.6-3.7-2.9c-0.8-1.4-1.3-3-1.3-4.9h5.4c0.1,0.9,0.3,1.6,0.8,2.2s1.1,1,1.8,1.3
	c0.8,0.3,1.6,0.4,2.6,0.4c0.9,0,1.8-0.1,2.4-0.4c0.7-0.3,1.2-0.7,1.6-1.1c0.4-0.5,0.6-1,0.6-1.7c0-0.6-0.2-1.1-0.5-1.5
	s-0.8-0.7-1.5-1s-1.5-0.5-2.4-0.8L7.9,15c-2.2-0.5-4-1.4-5.2-2.5c-1.3-1.1-1.9-2.7-1.9-4.6c0-1.6,0.4-3,1.3-4.2C2.8,2.6,4,1.7,5.5,1
	s3.2-1,5.1-1s3.6,0.3,5.1,1s2.6,1.6,3.4,2.8s1.2,2.6,1.3,4.1C20.4,7.9,15,7.9,15,7.9z"/>
</svg>
