<?xml version="1.0" encoding="utf-8"?>
<!-- Generator: Adobe Illustrator 27.0.0, SVG Export Plug-In . SVG Version: 6.00 Build 0)  -->
<svg version="1.1" id="Layer_1" xmlns="http://www.w3.org/2000/svg" xmlns:xlink="http://www.w3.org/1999/xlink" x="0px" y="0px"
	 viewBox="0 0 21.2 26.2" style="enable-background:new 0 0 21.2 26.2;" xml:space="preserve">
<style type="text/css">
	.st0{fill:#FF0000;}
</style>
<path class="st0" d="M0.6,26.2V0h10.3c2,0,3.7,0.4,5.1,1.1s2.5,1.7,3.2,3s1.1,2.8,1.1,4.5s-0.4,3.2-1.1,4.5
	c-0.8,1.2-1.8,2.2-3.3,2.9c-1.4,0.7-3.1,1-5.1,1H3.9v-4.4h6c1.1,0,1.9-0.1,2.6-0.4c0.7-0.3,1.2-0.7,1.6-1.3c0.3-0.6,0.5-1.3,0.5-2.2
	s-0.2-1.6-0.5-2.2s-0.9-1-1.6-1.4c-0.7-0.3-1.6-0.5-2.6-0.5H6.1v21.7H0.6V26.2z M14.7,14.3l6.5,11.9h-6.1L8.8,14.3H14.7z"/>
</svg>
