<?xml version="1.0" encoding="utf-8"?>
<svg version="1.1" id="Layer_1" xmlns="http://www.w3.org/2000/svg" xmlns:xlink="http://www.w3.org/1999/xlink" x="0px" y="0px"
	 viewBox="0 0 47.1 47.1" style="enable-background:new 0 0 47.1 47.1;" xml:space="preserve">
<style type="text/css">
	.st0{fill:#FF3636;}
</style>
<path d="M30,46.8c-0.3,0-0.6-0.1-0.8-0.2c-0.2-0.1-0.5-0.4-0.6-0.6c-0.1-0.3-0.2-0.5-0.2-0.8c0-0.3,0.1-0.6,0.2-0.8l2.3-3.8
	c0.1-0.2,0.3-0.3,0.4-0.5c0.2-0.1,0.4-0.2,0.6-0.3c0.2-0.1,0.4-0.1,0.6,0c0.2,0,0.4,0.1,0.6,0.2c0.2,0.1,0.3,0.3,0.5,0.4
	c0.1,0.2,0.2,0.4,0.3,0.6c0.1,0.2,0.1,0.4,0,0.6c0,0.2-0.1,0.4-0.2,0.6l-0.6,1c6-1.4,10.5-6.8,10.5-13.2c0-0.9,0.7-1.6,1.6-1.6
	c0.9,0,1.6,0.7,1.6,1.6C46.8,39.3,39.3,46.8,30,46.8z M1.9,18.7c-0.9,0-1.6-0.7-1.6-1.6C0.2,7.8,7.8,0.2,17,0.2
	c0.3,0,0.6,0.1,0.8,0.2c0.2,0.1,0.5,0.4,0.6,0.6c0.1,0.3,0.2,0.5,0.2,0.8c0,0.3-0.1,0.6-0.2,0.8l-2.3,3.8c-0.5,0.8-1.5,1-2.2,0.5
	c-0.2-0.1-0.3-0.3-0.5-0.4c-0.1-0.2-0.2-0.4-0.3-0.6c-0.1-0.2-0.1-0.4,0-0.6c0-0.2,0.1-0.4,0.2-0.6l0.6-1c-3,0.7-5.6,2.4-7.5,4.8
	C4.5,11,3.5,14,3.5,17C3.5,17.9,2.8,18.7,1.9,18.7z M29.6,24.9v6.4c0,5.3-2.1,7.4-7.4,7.4h-6.4c-5.3,0-7.4-2.1-7.4-7.4v-6.4
	c0-5.3,2.1-7.4,7.4-7.4h6.4C27.5,17.5,29.6,19.6,29.6,24.9z"/>
<path class="st0" d="M31.3,8.4h-6.4c-5.2,0-7.3,2.1-7.4,7.2h4.7c6.4,0,9.3,3,9.3,9.3v4.7c5.1-0.1,7.2-2.2,7.2-7.4v-6.3
	C38.7,10.5,36.6,8.4,31.3,8.4z"/>
</svg>
