<svg width="52" height="52" viewBox="0 0 52 52" fill="none" xmlns="http://www.w3.org/2000/svg">
<path d="M32.5 49.2874C32.2122 49.2858 31.93 49.208 31.682 49.0619C31.434 48.9158 31.2292 48.7066 31.0883 48.4557C30.9474 48.2047 30.8755 47.9209 30.8799 47.6331C30.8843 47.3454 30.9648 47.0639 31.1133 46.8174L33.3883 43.0257C33.4979 42.8422 33.6425 42.682 33.8139 42.5544C33.9854 42.4268 34.1803 42.3342 34.3875 42.2818C34.5947 42.2295 34.8102 42.2186 35.0217 42.2495C35.2332 42.2805 35.4365 42.3528 35.62 42.4624C35.8035 42.5719 35.9637 42.7165 36.0913 42.888C36.2189 43.0594 36.3116 43.2543 36.3639 43.4615C36.4162 43.6688 36.4272 43.8843 36.3962 44.0957C36.3652 44.3072 36.2929 44.5105 36.1833 44.694L35.5983 45.669C41.5783 44.2607 46.0633 38.8874 46.0633 32.474C46.0633 31.5857 46.8 30.849 47.6883 30.849C48.5767 30.849 49.3133 31.5857 49.3133 32.474C49.2917 41.7474 41.7517 49.2874 32.5 49.2874ZM4.33334 21.125C3.445 21.125 2.70834 20.3884 2.70834 19.5C2.70834 10.2484 10.2483 2.70837 19.5 2.70837C19.7878 2.70997 20.07 2.78777 20.318 2.93386C20.566 3.07994 20.7708 3.28911 20.9117 3.54007C21.0526 3.79103 21.1245 4.07483 21.1201 4.3626C21.1157 4.65037 21.0352 4.93184 20.8867 5.17837L18.6117 8.97004C18.1567 9.72837 17.16 9.98837 16.38 9.51171C16.1971 9.40144 16.038 9.25604 15.9116 9.0839C15.7853 8.91177 15.6943 8.7163 15.6439 8.5088C15.5936 8.30129 15.5848 8.08587 15.6182 7.87497C15.6516 7.66406 15.7264 7.46186 15.8383 7.28004L16.4233 6.30504C13.4475 7.00369 10.7948 8.68695 8.89529 11.0819C6.99582 13.4769 5.96091 16.4433 5.95834 19.5C5.95834 20.3884 5.22167 21.125 4.33334 21.125ZM32.0667 27.365V33.735C32.0667 39.0434 29.9433 41.1667 24.635 41.1667H18.265C12.9567 41.1667 10.8333 39.0434 10.8333 33.735V27.365C10.8333 22.0567 12.9567 19.9334 18.265 19.9334H24.635C29.9433 19.9334 32.0667 22.0567 32.0667 27.365Z" fill="white"/>
<path d="M33.735 10.8334H27.365C22.1433 10.8334 20.02 12.9134 19.955 18.0267H24.635C31.005 18.0267 33.9517 20.995 33.9517 27.3434V32.0234C39.0867 31.9584 41.145 29.835 41.145 24.6134V18.265C41.1667 12.9567 39.0433 10.8334 33.735 10.8334Z" fill="#FF3636"/>
</svg>
