<svg width="44" height="44" viewBox="0 0 44 44" fill="none" xmlns="http://www.w3.org/2000/svg">
<path d="M34.8333 12.8334C34.3471 12.8334 33.8808 13.0265 33.537 13.3703C33.1932 13.7142 33 14.1805 33 14.6667V35.1835C32.9474 36.1106 32.5306 36.9794 31.8404 37.6006C31.1502 38.2218 30.2425 38.5451 29.315 38.5H14.685C13.7575 38.5451 12.8498 38.2218 12.1596 37.6006C11.4694 36.9794 11.0526 36.1106 11 35.1835V14.6667C11 14.1805 10.8068 13.7142 10.463 13.3703C10.1192 13.0265 9.6529 12.8334 9.16667 12.8334C8.68044 12.8334 8.21412 13.0265 7.8703 13.3703C7.52649 13.7142 7.33333 14.1805 7.33333 14.6667V35.1835C7.38566 37.0833 8.18873 38.8849 9.56666 40.1937C10.9446 41.5026 12.7851 42.2121 14.685 42.1667H29.315C31.2149 42.2121 33.0554 41.5026 34.4333 40.1937C35.8113 38.8849 36.6143 37.0833 36.6667 35.1835V14.6667C36.6667 14.1805 36.4735 13.7142 36.1297 13.3703C35.7859 13.0265 35.3196 12.8334 34.8333 12.8334ZM36.6667 7.33337H29.3333V3.66671C29.3333 3.18048 29.1402 2.71416 28.7964 2.37034C28.4525 2.02653 27.9862 1.83337 27.5 1.83337H16.5C16.0138 1.83337 15.5475 2.02653 15.2036 2.37034C14.8598 2.71416 14.6667 3.18048 14.6667 3.66671V7.33337H7.33333C6.8471 7.33337 6.38079 7.52653 6.03697 7.87035C5.69315 8.21416 5.5 8.68048 5.5 9.16671C5.5 9.65294 5.69315 10.1193 6.03697 10.4631C6.38079 10.8069 6.8471 11 7.33333 11H36.6667C37.1529 11 37.6192 10.8069 37.963 10.4631C38.3068 10.1193 38.5 9.65294 38.5 9.16671C38.5 8.68048 38.3068 8.21416 37.963 7.87035C37.6192 7.52653 37.1529 7.33337 36.6667 7.33337ZM18.3333 7.33337V5.50004H25.6667V7.33337H18.3333Z" fill="white"/>
<path d="M20.1667 31.1667V18.3333C20.1667 17.8471 19.9735 17.3808 19.6297 17.037C19.2859 16.6932 18.8196 16.5 18.3333 16.5C17.8471 16.5 17.3808 16.6932 17.037 17.037C16.6932 17.3808 16.5 17.8471 16.5 18.3333V31.1667C16.5 31.6529 16.6932 32.1192 17.037 32.463C17.3808 32.8068 17.8471 33 18.3333 33C18.8196 33 19.2859 32.8068 19.6297 32.463C19.9735 32.1192 20.1667 31.6529 20.1667 31.1667ZM27.5 31.1667V18.3333C27.5 17.8471 27.3068 17.3808 26.963 17.037C26.6192 16.6932 26.1529 16.5 25.6667 16.5C25.1804 16.5 24.7141 16.6932 24.3703 17.037C24.0265 17.3808 23.8333 17.8471 23.8333 18.3333V31.1667C23.8333 31.6529 24.0265 32.1192 24.3703 32.463C24.7141 32.8068 25.1804 33 25.6667 33C26.1529 33 26.6192 32.8068 26.963 32.463C27.3068 32.1192 27.5 31.6529 27.5 31.1667Z" fill="white"/>
</svg>
