<svg width="40" height="40" viewBox="0 0 40 40" fill="none" xmlns="http://www.w3.org/2000/svg">
<g clip-path="url(#clip0_38_18)">
<path d="M20 22.5C21.3807 22.5 22.5 21.3807 22.5 20C22.5 18.6193 21.3807 17.5 20 17.5C18.6193 17.5 17.5 18.6193 17.5 20C17.5 21.3807 18.6193 22.5 20 22.5Z" fill="url(#paint0_radial_38_18)"/>
<path d="M37.138 9.65977C36.313 10.3112 35.2726 10.7016 34.1422 10.7016C33.2633 10.7026 32.401 10.4629 31.6486 10.0087L24.1509 17.5064C24.6051 18.2588 24.8447 19.1211 24.8438 20C24.8438 22.6709 22.6709 24.8438 20 24.8438C17.3291 24.8438 15.1562 22.6709 15.1562 20C15.1562 17.3291 17.3291 15.1562 20 15.1562C20.8789 15.1553 21.7412 15.3949 22.4936 15.8492L29.9913 8.35148C29.5371 7.59912 29.2974 6.73675 29.2984 5.85789C29.2984 4.66734 29.731 3.57641 30.4462 2.73211C27.4098 0.882344 23.891 0 20 0C8.9543 0 0 8.9543 0 20C0 31.0457 8.9543 40 20 40C31.0457 40 40 31.0457 40 20C40 16.171 38.9834 12.673 37.138 9.65977Z" fill="url(#paint1_radial_38_18)"/>
<path d="M34.1422 8.35791C35.5229 8.35791 36.6422 7.23862 36.6422 5.85791C36.6422 4.4772 35.5229 3.35791 34.1422 3.35791C32.7615 3.35791 31.6422 4.4772 31.6422 5.85791C31.6422 7.23862 32.7615 8.35791 34.1422 8.35791Z" fill="url(#paint2_radial_38_18)"/>
</g>
<defs>
<radialGradient id="paint0_radial_38_18" cx="0" cy="0" r="1" gradientUnits="userSpaceOnUse" gradientTransform="translate(20 20) rotate(90) scale(2.5)">
<stop offset="0.333333" stop-opacity="0.85"/>
<stop offset="1" stop-opacity="0.35"/>
</radialGradient>
<radialGradient id="paint1_radial_38_18" cx="0" cy="0" r="1" gradientUnits="userSpaceOnUse" gradientTransform="translate(20 20) rotate(90) scale(20)">
<stop offset="0.333333" stop-opacity="0.85"/>
<stop offset="1" stop-opacity="0.35"/>
</radialGradient>
<radialGradient id="paint2_radial_38_18" cx="0" cy="0" r="1" gradientUnits="userSpaceOnUse" gradientTransform="translate(34.1422 5.85791) rotate(90) scale(2.5)">
<stop offset="0.333333" stop-opacity="0.85"/>
<stop offset="1" stop-opacity="0.35"/>
</radialGradient>
<clipPath id="clip0_38_18">
<rect width="40" height="40" fill="white"/>
</clipPath>
</defs>
</svg>
