<?xml version="1.0" encoding="utf-8"?>
<!-- Generator: Adobe Illustrator 27.0.0, SVG Export Plug-In . SVG Version: 6.00 Build 0)  -->
<svg version="1.1" id="Layer_1" xmlns="http://www.w3.org/2000/svg" xmlns:xlink="http://www.w3.org/1999/xlink" x="0px" y="0px"
	 viewBox="0 0 31.1 35" style="enable-background:new 0 0 31.1 35;" xml:space="preserve">
<path d="M27.2,7V4c0.9-0.5,1.5-1.4,1.5-2.5V0.7c0-0.1,0-0.2-0.1-0.3c0-0.1-0.1-0.2-0.2-0.2c-0.1-0.1-0.1-0.1-0.2-0.2
	C28.1,0,28.1,0,28,0H3.2C3.1,0,3,0,2.9,0.1c-0.1,0-0.2,0.1-0.2,0.2C2.6,0.3,2.5,0.4,2.5,0.5c0,0.1-0.1,0.2-0.1,0.3v0.7
	c0,1.1,0.6,2,1.5,2.5V7c0,2.9,1.2,5.7,3.4,7.6l3.2,2.9l-3.2,2.9c-2.1,1.9-3.4,4.7-3.4,7.6V31c-0.9,0.5-1.5,1.4-1.5,2.5v0.7
	c0,0.1,0,0.2,0.1,0.3c0,0.1,0.1,0.2,0.2,0.2c0.1,0.1,0.1,0.1,0.2,0.2C3,35,3.1,35,3.2,35H28c0.1,0,0.2,0,0.3-0.1
	c0.1,0,0.2-0.1,0.2-0.2c0.1-0.1,0.1-0.1,0.2-0.2s0.1-0.2,0.1-0.3v-0.7c0-1.1-0.6-2-1.5-2.5V28c0-2.9-1.2-5.7-3.4-7.6l-3.2-2.9
	l3.2-2.9C26,12.7,27.2,9.9,27.2,7z M21.9,12.5l-4.4,4c-0.3,0.3-0.5,0.7-0.5,1.1s0.2,0.8,0.5,1.1l4.4,4c1.5,1.4,2.4,3.4,2.4,5.4v2.7
	h-1.8l-6.3-8.5c-0.3-0.4-0.9-0.4-1.2,0l-6.3,8.5H6.8V28c0-2.1,0.9-4,2.4-5.4l4.4-4c0.3-0.3,0.5-0.7,0.5-1.1s-0.2-0.8-0.5-1.1l-4.4-4
	C7.7,11.1,6.8,9.1,6.8,7V4.4h17.5V7C24.3,9.1,23.4,11.1,21.9,12.5z"/>
</svg>
